<svg xmlns="http://www.w3.org/2000/svg" viewBox="0 0 1030.3 186.3"><defs><style>.cls-1{fill:#fff;}</style></defs><title>logo_white</title><g id="레이어_2" data-name="레이어 2"><g id="레이어_1-2" data-name="레이어 1"><path class="cls-1" d="M98.33,96.88v1l1-.81,5.67.81.81.65,2.43-.49c2.16,1.3,3.18,2.32,3.07,3.08l-.16,1.78q-4.22,10.2-12.31,9.07,0,1.14-11.83.33l-.64-1h-.81q-4.07,1-11,0L71.28,111,70,114.21q-.48,2.76,2.6,10.85v3.41L74,133.16q1.14,8.43.49,10.7l-2.43,4.37-7.45,1.13q-4.05-1.12-4.54-4.53l-1.29-4.21Q58.65,135,58,127l1-2.11q-1.3-.15-4-12.47Q19.45,115.67,6.8,120q-6-2.75-6.8-5.83l.16-.49q1-7.44,16-7.45Q36.12,101.74,62.05,98l.48,1.13h.81l13.77-1.62v.65Zm-30-60.11q13,2.11,13,13Q76.15,81.32,54,81.32q-12.81-3.72-15.72-10V65.61q0-15.55,23-27.38ZM64,46.82l-2.75,2.91-1.3-1.45H58.32q-10.05,11-10,14.25,2.27,6,4.37,6h2.92q6.8,0,11.5-17.34V49.73Z"/><path class="cls-1" d="M122.44,64.94H127q20.52,0,20.52,11.07l1.89,22.68q-3.37,6.21-16.6,14.58l-2.43,4.31.81,1v.68l-.81,3.51q0,6.89,8.64,6.88l11.2-.81q3.38,1.22,3.38,2.7-1.62,9.31-9.32,9.32-2.16,1.75-17.28,2.56-10.4-3.65-10.39-10.26l.81-2.7-.81-6.75q0-13,17.28-23.35,3.24-3.51,3.24-6.75V89.91q0-16.2-11.07-16.2a7.19,7.19,0,0,1-6.89-4.45v-.81ZM180.22,44q4.86,1.62,4.86,4.19l-.54,4L186,65.48l-1.49,11.74,5.54,46.17h-.54l.54.54v9.59l1.08,3.91h-1.08l1.08.95v5.67l.67,10.8q0,8.1-7.29,8.1l-2.7.94h-1.62q-3.24,0-5.53-27.27l.54-3.1-.54-4.19.54-.94-.54-5.81V96.12l-1.08-3.24,1.62-2.56-.54-.95.54-3.24-.54-4,.54-.94v-.68l-.54-.94v-1l1.48-3.1-.94-1.08v-.68q.41-5.8,1.75-5.8l-.81-.54V66.29Q176.17,44,180.22,44Z"/><path class="cls-1" d="M276.21,67.39q6.46,0,10.69,12.15v7.13q-5.67,14.74-21.39,26.24L250,115.34q-6.79,0-12.15-12,0-13.12,37.26-36ZM250.93,96.07v3.72c.43,1.62,2.49,3.24,6.16,4.86q10.37,0,14.26-15.55V87.8l-1.14-8.26Q255.63,87.81,250.93,96.07Zm86,11.66h-.65l-.16,2.59.32,4.21-.81-.32.81,1.13v.81l-.81,1-.16.81,2.1,11.82h-.81l1,7.62q-.66,10.53-12.8,9.72l-3.4,2.59h-.81q-3.57-.16-5-26.25l1.14.17-1-3.08,1.29-.81v-.81l-1.46-6V111l1.14-.81-1-1.13v-.81l1.13-1.14v-1l-1.3-6.64,1.14-2.92-.49-5.67,1.3-5.67-1.3-11.66,1.3-.81L314.6,19l3.08-1.78h1q10.85,7.14,10,21.71l4.54,30.94H332.1l3.4,19.44v2.92l.16,11.66Zm-1.79-31.1,1-.65,12.63-1.46,2.11-.65,2.91-1.62,2.11.16,3.56-1.62q.16,1,9.4.81l1.13.65q1.14,4.38-1.94,10.53l-2.27.49-.81-.65-.65,1-1.94.65q-22.84-.17-24-1.62c-1,.11-1.67-.65-2.1-2.27Z"/><path class="cls-1" d="M409.4,77.76q5.39.67,5.39,2.84v4.45c0,1.44-1,2.16-3,2.16l-1.08,1v1.08l1.08,4.18-1.08,1v1.08l1.08.81V97.6q-15.54,24-26.06,26.06h-5.26c-1.45-.45-2.84-2.2-4.19-5.26Q377.94,104.77,394,86,404.66,77.77,409.4,77.76Zm-25.79,37.53,3.11.95q7.54,0,15.66-15.66l-2-7.16q-10.8,0-17.82,21.87ZM450.3,52.52q3.51,1.21,7.43,12.28L454,90.18l.94.81L454,95.18l.94,8.1-.94,6.21.94,9H454l.94,1.08v1l-.94,3.1.94,6.08-.94,4.18.94.81-1.08,8.78q.27,6.08-5.4,11.74-6.89-3.1-7.56-13.36l-.27-7.16L440,122.58l.95-.94v-1.08l-.95-1v-1.08l1.89-20.25-.94-2Q447.73,52.52,450.3,52.52Z"/><path class="cls-1" d="M466.1,118.94q4.31,0,10.12,7.29,0,6.88-10.12,16.74h-2.16l-2.3-2.16,4.46-5.13V135l-5.81-4.45v-2.16l.67-.68-.67-.81v-.67Q460.29,118.94,466.1,118.94Z"/><path class="cls-1" d="M555.27,40.5l4.22.81,3.07-.81q10.22,1,10.21,7.78-2.6,1-14.42,19.27-2.91.49-7.29,9.56,10.53,0,21.87,23.49,4.7,7.14,8.59,13.93v1.79L572,120.2q-5.34-.32-10.86-11.82l-5.34-9.07q-4.38-5-6.64-20.42-1.79.33-12.48,18.47l-10.2,4.38-2-1.79,1-1-1-2.59q6-10.2,23.49-31.43l6.48-12.31-5.34-.81a16.44,16.44,0,0,0-8.27,2.59h-1.94l-8.42-7V43.9l2.27-2.59,7.12.81H542Q550.74,42.12,555.27,40.5Zm8.27-29.81h3.07q6.17,3.74,6.16,14.91-3.07,9.56-12.31,9.55l-5.19,1-1.94-2.76V30.78Q553.33,26.08,563.54,10.69Zm34.83,124.9h4.37q7.93,0,10.53,7l-1,3.56,1.78,1.62-.81,1v.81l2.59,10.53-5.18,3.56L604.52,168h-4.37q-24.46,4.55-24.46,7.78Q564,182.41,560.78,186.3q-1.93,0-3.56-11.34h1l-1-1V147.74l1-.81-1-2.59q.64-3.08,5.34-5.34l.81,1h.81l5.35-1.78,3.4.81A87.27,87.27,0,0,1,598.37,135.59Zm-33.21,13.13v4.37l.81,3.4-.81,1v.81l1.78,11.34,34-12.15q0-10.36-5.19-11.34v-1l-1,1H594l-8.75-1Q572,145.15,565.16,148.72ZM601,0h1q11.34,6.32,11.34,20.74l6.48,30.13h-.81l4.54,18.95v2.76l1.13,11.34,2.75-.81,16,1.94h2.92L650,83.92l2.76,1.13,4.86-1.13q0,1.62,11.34,3.72l.81,1.14q-.16,4.86-5.67,10.2h-2.76l-1-.81-.81.81h-2.91Q629,92.5,628.33,90.56c-1.29,0-1.94-1-1.94-2.92h-1v2.92l1,3.89h-1l1,.81v1l-1,1.13v.81l2.91,11.34h-1l1.79,7.45q0,10.55-12.15,10.53l-2.92,2.76h-.81q-3.57,0-6.64-25.44h1l-1-2.91,1-.81v-1l-2.11-5.67v-2l1.14-.81-1.14-1.13v-1l1.14-.81V87.64l-2-6.48.81-2.91-.81-5.67.81-5.67-1.62-11.18.81-1.14L598.2,1.78Z"/><path class="cls-1" d="M753.83,151.33q-7.7-2.55-7.7-5.12,0-12.17-3.24-19.85l-23.62,5.54q-3.51-3.92-3.51-5.94l.94-.81v-1l-.94-3.24V120q0-3.51,16.87-6.75l1,.94,42.25-8.64,6.08,6.08v7.42l-2.57,2.57h-1.75l-.81-.68q-22,1.22-22,5.4l.68,1v6.75l.94,16.33-.94.94ZM731.42,57.65l10.26.94,2.56-.94v.94l.68-.94q22.27,0,27.54,7.69l-5,25.51.81.68-1.62,10.53v2.56q0,2.44-6.07,3.52l-5.81-3.52-.94-.67v-2.56q0-10.94,3.51-25.92-1.49-5.81-4.19-5.81l-.94.81-2.57-.81-10.53.81q-6.21,0-12.82-6.75v-.94Q728.86,57.65,731.42,57.65Zm70.2-11.48h1.48q1.62.54,3.38,8.37H807L805.8,79l.68,3.24-.68,9.58v19L807,129.06l1.08,17.69a39.55,39.55,0,0,1-.81,11.87l-4.19,3.11q-9.86,0-9.85-13.9-1.08,0-1.35-11.61l.81-.95v-1.08l-.81-1.08,1.35-24.43-.54-3.11h.54l-.54-1.08v-1.08l.54-1.08v-1.08L792.71,96l1.21-4.19-.67-3.1Q796.63,46.18,801.62,46.17Z"/><path class="cls-1" d="M841.85,64.67q9.17-2.43,8.91,7.56V78.3q-1.1,12.15-14.18,21.87l-3.37,1.76q-20,3.91-19.58-9.86,5-15.93,25.92-26.73ZM824.57,86.13v3.11c.35,1.34,2.06,2.7,5.13,4.05q8.5,0,11.88-13l.27-4.46-1.22-3.64Q834.42,72.63,824.57,86.13Zm59.8,26.19q4.73,3.51,5.27,6.75-1.62,0-7.83,24.44l-1.49,8.91q-.68,4.46-7.29,4.59-4.32,0-4.72-6.21l1.08-2.16-.41-2.7,2-3-.27-1.62,1.62-1.08c.08-.9-1.76-1.62-5.54-2.17v-.53l-.67.53h-4.46l-3.64-.53-.54,3.24q.81,16.74,5.13,16.74,12.83,2.14,13.36,3.24l-.27,1.08-5.26,5.67h-3.65q-16.74,0-16.06-4.32A395.31,395.31,0,0,1,846.84,123h.68l-.68-.54.54-2.84c.09-1,1.12-1.53,3.11-1.62q2.7,0,5.8,5l-.94.54v.54q.27,8.37,3.64,8.37l15.12,1.08a82.35,82.35,0,0,0,6.48-20.66l.81-.54Zm7.43-71.95h1.35q7.29.95,6.34,17.55l-.13,3.24V73.85L898,86.27l.81.94q-.69,11.34-2.57,14.58l.68.41v.67c-.64,1.35-1.31,2-2,2l.54.67v.81a10.49,10.49,0,0,1-5.67,2.7,8.39,8.39,0,0,1-3.64-4.18A44.9,44.9,0,0,1,884,99.36l.27-3.64.27-4.32-2-.14a60.74,60.74,0,0,1-8.5.81,25,25,0,0,1-7.7.81l-1.08-.27-.54-.67-.54.67q-4.05-4.19-3.78-7.42,1.75-1.48,5.94-2.16l.54-.68,3.51.14,3.11-1.08,2.29.13q6.48.81,9,1.08l.27-3.91.94-4.59-5.13-2.7-.67.54h-.54l-4.19-.81L868.31,71a8.7,8.7,0,0,1-5.67-6.89l.27-.67q.12-4.19,21.33-4.18l2.16.94.13-.67Q888,40.24,891.8,40.37Z"/><path class="cls-1" d="M947.28,111.78q4.72.41,5.67,7.43l.41,4.59q.67,6.35,3.1,7.15l11.75,1,4.59.27A11.78,11.78,0,0,1,982,137.7v.54q-2.43,5.26-5.27,7L973.2,145l-2.56-.81-.68.54h-.81l-2-.81-3.92.27-2.56-.81a326.63,326.63,0,0,0-42.93,3.92q-.13,1.62-8.91,2l-3.65-5.8.27-1.35q.27-3.24,1.35-3.24l3.38-1.76,4.32-.94,6.75-1.89-.41-2.16.54-1.22-.81-7.83-.81-5.54,2.43-3.1c3.24-.36,5.22.68,5.94,3.1A27.42,27.42,0,0,1,931,126.5l1.21,5.4,5.54-.41q4.32.54,4.72-3l.54-5.13.27-5.54C943.77,114.89,945.12,112.86,947.28,111.78ZM913.53,58.59H915l.81.68.67-.68q10.26,1.08,10.26,2.16l.68-.67q10.93,1.22,10.93,7.29l-8,23.21q5,0,27.27,5.54l-2.57,8.23H953q-24-3.9-24-7.82h-.81q-3.24,3.1-7.29,15.93l-4.32,3H915l-2.16-2.16q1.49-10,12.42-40.91l-.81-.67V70.2l.81-.67v-.81q-14.58-2.84-14.58-5.81V61.43Z"/><path class="cls-1" d="M1004.79,62.24h1.35l4.45.94,2.16-.94q9.32,2.57,13.91,7.42,1.21,0,3.64,10.94v1.75l-.81.68.81.94v3.24q-3.1,9-8.77,11.61l-13.1,11.75.68,8.37v1.62q-1.08,3.24-5.13,3.24-6.48,0-6.48-9,2.7-10.94,15.93-22.41,5.13-5.81,5.13-10.93a18.77,18.77,0,0,0-5.81-6.62h-6.61q-9.72,7.56-10.94,10.8-7.29-1.49-7.29-3.24l.81-.94V80.6l-.81-.81v-1l.81-.81-.81-4.18V71.42q0-5.94,12.42-8.24Zm2.16,66.69q1.62,0,3.64,7.42-1.89,9.18-9.45,9.18a12,12,0,0,1-5.94-4.18v-1.62q5.13-6.75,5.13-10l.81-.81Z"/></g></g></svg>